<?xml version="1.0" standalone="no"?>
<!DOCTYPE svg PUBLIC "-//W3C//DTD SVG 20010904//EN"
 "http://www.w3.org/TR/2001/REC-SVG-20010904/DTD/svg10.dtd">
<svg version="1.0" xmlns="http://www.w3.org/2000/svg"
 width="256.000000pt" height="256.000000pt" viewBox="0 0 256.000000 256.000000"
 preserveAspectRatio="xMidYMid meet">

<g transform="translate(0.000000,256.000000) scale(0.100000,-0.100000)"
fill="#000000" stroke="none">
<path d="M1252 2325 c-28 -45 -77 -75 -120 -75 -53 0 -182 -30 -247 -57 -135
-56 -301 -187 -380 -297 -93 -131 -145 -265 -171 -440 -62 -419 125 -797 489
-987 82 -43 85 -47 62 -101 -13 -32 18 -20 116 42 l94 60 47 -52 c27 -29 48
-58 48 -66 0 -8 11 -23 24 -33 13 -10 33 -37 44 -60 l21 -41 20 40 c28 55 47
72 82 72 33 0 37 7 12 25 -15 11 -14 16 10 58 15 25 32 49 37 52 6 4 50 -18
98 -48 142 -89 163 -95 129 -38 -9 16 -17 31 -17 34 0 3 25 17 55 31 142 65
292 199 387 346 230 356 187 871 -99 1180 -153 165 -322 251 -547 280 -84 11
-110 26 -144 83 -9 15 -19 27 -22 27 -3 0 -15 -16 -28 -35z m49 -18 l16 -32
-37 3 -38 4 17 29 c9 16 18 29 21 29 3 0 12 -15 21 -33z m37 -71 c8 -9 189
-413 209 -463 3 -8 -3 -13 -14 -13 -16 0 -38 38 -107 185 -104 220 -136 293
-136 304 0 12 37 2 48 -13z m-146 -108 c-141 -266 -191 -332 -70 -93 50 99 98
188 106 198 34 38 21 2 -36 -105z m-63 98 c-3 -3 -40 -12 -83 -21 -98 -20
-174 -48 -243 -90 -66 -40 -123 -91 -123 -110 0 -43 -103 -221 -121 -209 -5 3
-9 33 -9 67 l0 62 71 68 c123 116 233 181 371 217 66 17 148 27 137 16z m39
-63 c-47 -101 -61 -117 -140 -155 -237 -115 -400 -337 -443 -604 -13 -79 -24
-110 -52 -158 l-37 -59 -12 36 c-38 110 -21 186 55 246 32 26 53 57 94 144 90
188 206 314 370 400 64 34 65 37 5 21 -24 -7 -23 -4 17 71 47 89 30 82 -22 -9
-37 -65 -50 -78 -120 -122 -70 -44 -85 -49 -147 -52 l-69 -4 34 62 c51 95 163
166 305 194 38 8 94 23 124 34 30 11 58 21 62 21 4 1 -7 -29 -24 -66z m270 48
c35 -11 70 -25 78 -32 19 -15 76 -127 72 -139 -5 -14 -132 30 -152 53 -24 29
-79 137 -69 137 5 0 36 -9 71 -19z m123 0 c97 -25 158 -52 238 -106 71 -47
182 -150 202 -187 7 -13 -11 2 -39 32 -31 34 -51 49 -52 39 0 -28 38 -127 62
-159 l23 -32 6 29 7 28 1 -27 c4 -86 -80 17 -114 140 -16 57 -23 67 -74 106
-89 68 -144 93 -296 132 -49 12 -78 23 -64 23 14 1 59 -8 100 -18z m-112 -409
c56 -117 101 -217 99 -222 -5 -16 -107 130 -182 261 -39 68 -90 151 -114 184
-23 34 -42 63 -42 67 0 3 12 27 27 53 l26 48 42 -89 c23 -49 88 -185 144 -302z
m196 347 c30 -11 76 -35 102 -53 49 -33 113 -108 112 -129 0 -7 -8 -1 -17 13
-23 33 -65 79 -56 60 19 -39 66 -100 73 -96 4 3 8 -2 8 -11 0 -13 -9 -15 -53
-10 -94 10 -168 65 -216 161 -17 34 -38 70 -47 80 -15 18 -15 19 12 12 15 -4
52 -16 82 -27z m-386 -161 c29 -46 90 -145 134 -221 45 -75 106 -165 136 -198
49 -56 121 -163 121 -181 0 -4 -46 29 -102 75 -112 91 -187 180 -248 298 -22
42 -65 108 -95 147 -30 39 -55 75 -55 81 0 14 41 81 49 81 4 0 31 -37 60 -82z
m319 11 c35 -16 85 -44 112 -64 35 -26 58 -35 86 -35 58 0 108 -17 134 -45 13
-14 20 -25 15 -25 -4 0 -16 9 -26 21 -17 19 -96 46 -106 35 -8 -8 40 -66 49
-60 5 3 25 -4 44 -15 42 -25 62 -28 44 -6 -7 8 -8 15 -3 15 8 0 73 -84 73 -95
0 -6 -72 20 -118 44 -51 26 -53 18 -9 -29 19 -19 46 -64 61 -100 16 -36 37
-80 47 -98 11 -18 15 -30 9 -27 -5 3 -10 2 -10 -4 0 -5 18 -24 40 -41 22 -18
45 -42 51 -53 7 -15 3 -13 -11 6 -12 15 -31 32 -42 38 -20 11 -21 10 -14 -72
9 -104 0 -100 -15 6 -23 165 -90 302 -211 430 -93 99 -145 137 -235 175 -66
28 -96 48 -53 35 14 -4 53 -20 88 -36z m-522 -69 c-20 -39 -33 -76 -30 -82 4
-6 3 -9 -2 -5 -5 3 -49 -70 -98 -161 -49 -92 -129 -237 -178 -323 -48 -85 -88
-162 -88 -171 0 -11 36 -23 138 -48 147 -35 165 -42 200 -73 l22 -21 35 34 35
34 35 -17 c35 -17 35 -17 90 18 42 27 65 35 100 35 26 0 45 -4 43 -9 -1 -5
-19 -26 -38 -47 -32 -36 -40 -39 -86 -39 -40 0 -62 -7 -104 -33 -40 -25 -60
-31 -81 -27 -23 5 -43 -6 -138 -79 -61 -47 -117 -86 -124 -86 -7 0 -31 28 -54
63 -157 232 -173 484 -48 742 75 155 188 271 330 340 38 19 71 32 73 30 2 -2
-12 -36 -32 -75z m524 26 c46 -22 91 -57 156 -121 102 -101 158 -188 201 -310
25 -74 28 -92 28 -230 0 -143 -1 -153 -29 -220 -36 -86 -84 -168 -128 -219
l-33 -38 -86 63 c-47 35 -96 71 -108 79 l-24 16 73 164 c40 91 76 169 80 174
10 10 97 -68 116 -105 8 -16 14 -51 14 -79 0 -27 4 -50 10 -50 17 0 58 72 71
123 16 64 6 165 -21 221 -12 25 -61 87 -109 138 -100 106 -114 128 -105 163 6
25 5 25 -45 24 -29 -1 -56 2 -60 7 -8 9 -111 232 -111 241 0 8 43 -8 110 -41z
m-328 -148 c129 -213 166 -259 304 -374 72 -60 81 -82 60 -139 l-18 -45 -37
57 c-21 32 -74 97 -119 145 -44 48 -113 130 -152 183 -39 52 -100 127 -135
166 -36 39 -65 74 -65 77 0 4 10 23 21 42 l22 35 48 -55 c26 -30 58 -71 71
-92z m-496 36 c-30 -30 -72 -67 -93 -81 -37 -25 -113 -57 -113 -47 0 3 23 41
51 85 56 86 72 96 162 98 l47 1 -54 -56z m-220 19 c1 -16 2 -50 4 -78 1 -35
-5 -67 -24 -110 -14 -33 -30 -80 -36 -104 -14 -53 -21 -45 -46 47 -15 54 -16
69 -5 100 14 39 92 172 101 172 3 0 6 -12 6 -27z m1565 -86 c17 -32 29 -60 27
-62 -2 -2 -19 24 -38 57 -31 58 -34 60 -44 39 -9 -21 -3 -78 18 -161 4 -14 -2
-7 -13 15 -15 30 -20 62 -20 130 l-1 90 20 -25 c11 -14 33 -51 51 -83z m-969
27 c29 -31 90 -106 136 -168 45 -61 116 -147 156 -192 91 -99 156 -190 156
-218 -1 -12 -6 -31 -13 -44 -12 -21 -23 -9 -199 221 -102 133 -218 277 -257
319 l-72 77 17 31 c10 16 19 30 21 30 1 0 26 -25 55 -56z m-32 -91 c130 -142
470 -603 470 -637 0 -26 -16 -18 -45 22 -32 42 -167 214 -269 341 -38 47 -101
122 -140 166 -112 126 -109 122 -102 150 4 14 10 25 15 25 5 0 37 -30 71 -67z
m498 1 c29 -14 62 -40 74 -57 12 -18 57 -68 98 -112 42 -44 82 -91 89 -103 12
-22 11 -23 -9 -17 -19 6 -21 4 -15 -17 4 -12 14 -36 22 -51 8 -16 13 -30 11
-32 -2 -1 -53 51 -114 115 -78 82 -123 140 -149 189 -21 40 -49 81 -63 91 -35
28 -6 25 56 -6z m65 7 c-4 -17 -8 -18 -24 -8 -13 8 -15 13 -6 19 22 14 35 9
30 -11z m-1003 -15 c0 -3 -20 -47 -45 -98 -35 -70 -58 -104 -95 -136 -28 -24
-50 -39 -50 -32 0 31 33 150 49 176 22 36 141 111 141 90z m936 -88 c30 -52
81 -118 140 -179 115 -121 129 -146 140 -249 l5 -45 -15 38 c-7 21 -49 75 -93
120 -85 89 -126 144 -167 224 -34 67 -78 185 -67 178 5 -3 31 -42 57 -87z
m-558 27 c41 -53 43 -56 32 -95 l-11 -40 -28 15 c-28 14 -91 82 -91 97 0 11
41 78 49 78 3 0 26 -25 49 -55z m-590 -241 c-12 -95 -18 -94 -58 5 -24 63 -25
116 -3 194 l16 60 28 -87 c27 -83 28 -91 17 -172z m1598 194 c8 -15 14 -31 14
-35 -1 -4 -8 6 -17 22 -8 17 -25 41 -37 55 l-21 25 24 -20 c12 -11 29 -32 37
-47z m99 -44 c-22 -77 -26 -64 -6 19 9 37 17 60 19 52 2 -8 -4 -40 -13 -71z
m-1118 -47 c16 -9 36 -33 46 -56 10 -23 41 -59 70 -84 29 -23 93 -76 142 -117
l90 -75 -34 -3 c-27 -3 -41 3 -70 31 -20 19 -76 63 -126 98 -92 64 -255 214
-255 234 0 6 7 21 16 33 l16 23 38 -35 c21 -19 52 -41 67 -49z m88 37 c9 -14
54 -67 99 -117 154 -172 209 -241 197 -245 -7 -2 -33 14 -59 35 -26 22 -87 71
-135 111 -126 102 -151 139 -140 206 7 43 15 45 38 10z m-10 -234 c87 -59 165
-121 165 -131 0 -29 -42 -10 -182 85 -85 58 -177 125 -204 149 l-48 44 17 27
18 27 92 -84 c51 -45 115 -98 142 -117z m-735 108 c0 -7 23 -58 50 -112 28
-54 50 -112 50 -128 0 -28 0 -28 -29 -14 -44 23 -88 71 -94 105 -8 39 3 161
14 161 5 0 9 -6 9 -12z m506 -25 c25 -21 109 -81 187 -133 78 -52 142 -101
142 -108 0 -7 -12 -21 -27 -30 -26 -16 -27 -15 -75 29 -26 25 -100 79 -163
120 -139 91 -148 100 -130 134 7 14 15 25 17 25 2 0 24 -17 49 -37z m64 -146
c47 -30 98 -69 113 -85 l28 -29 -27 -22 c-34 -27 -35 -27 -70 10 -16 17 -59
49 -95 70 -37 22 -84 55 -104 72 l-38 33 17 32 17 33 37 -29 c20 -16 75 -54
122 -85z m-5 -111 c14 -10 -15 -6 -90 15 -60 16 -120 32 -132 35 -28 7 -28 11
-3 51 l19 33 93 -60 c51 -32 102 -65 113 -74z m671 56 c-14 -27 -23 -52 -21
-56 3 -3 0 -2 -6 3 -7 5 -1 27 18 65 15 31 29 53 31 47 2 -5 -8 -32 -22 -59z
m399 11 c-18 -144 -113 -335 -213 -426 -23 -21 -49 -51 -57 -67 -9 -17 -18
-30 -20 -30 -13 0 36 78 65 105 108 101 194 272 215 428 3 26 9 47 12 47 3 0
2 -26 -2 -57z m-1425 14 c0 -99 77 -274 171 -392 34 -41 59 -80 57 -86 -2 -6
-22 11 -43 37 -55 67 -122 134 -134 134 -12 0 -8 -9 36 -98 37 -74 20 -64 -43
24 -58 82 -114 203 -121 265 -5 45 -3 54 28 99 19 28 37 50 42 50 4 0 7 -15 7
-33z m-83 -177 c12 -41 23 -76 23 -78 0 -7 -61 30 -89 54 -41 34 -58 69 -69
138 l-9 55 60 -47 c56 -44 62 -52 84 -122z m1700 128 c-3 -8 -6 -5 -6 6 -1 11
2 17 5 13 3 -3 4 -12 1 -19z m-713 -59 l37 -50 -22 -54 -22 -54 -27 19 c-15
11 -43 39 -63 63 l-36 44 42 41 c23 23 44 42 47 42 3 0 23 -23 44 -51z m-130
-65 c10 -26 7 -159 -5 -215 -7 -34 -23 -64 -45 -89 -20 -22 -32 -44 -29 -52 3
-8 -1 -20 -9 -27 -12 -10 -19 -5 -43 31 -27 41 -28 50 -31 177 -4 139 1 186
19 175 7 -4 8 -42 4 -107 -7 -122 1 -162 35 -162 18 0 30 11 49 49 20 39 26
67 29 142 4 89 12 114 26 78z m-65 -15 c25 -9 31 -16 31 -40 0 -27 -2 -29 -40
-29 -45 0 -56 14 -46 55 7 28 11 29 55 14z m-109 -29 c0 -13 -19 -30 -61 -55
-34 -20 -63 -34 -65 -32 -12 12 93 107 118 107 4 0 8 -9 8 -20z m-698 -43 c35
-23 71 -60 97 -100 24 -34 31 -50 17 -34 -14 15 -31 27 -38 27 -7 0 -25 20
-40 45 -30 48 -56 63 -32 18 7 -16 14 -41 14 -56 0 -16 5 -38 11 -50 27 -52
125 -159 199 -217 82 -65 101 -84 53 -53 -177 111 -302 269 -358 452 -8 26
-11 27 77 -32z m913 29 c22 -34 37 -88 22 -80 -33 19 -47 40 -47 71 0 39 4 41
25 9z m-355 -40 c0 -13 -13 -39 -28 -59 l-29 -36 -25 26 -26 26 46 37 c51 40
62 41 62 6z m1035 24 c-3 -5 -11 -10 -16 -10 -6 0 -7 5 -4 10 3 6 11 10 16 10
6 0 7 -4 4 -10z m35 -14 c0 -2 -22 -20 -50 -40 -27 -20 -50 -34 -50 -31 0 4
91 74 98 75 1 0 2 -2 2 -4z m-937 -34 c-4 -9 -33 -42 -64 -72 -43 -41 -60 -67
-69 -100 -7 -25 -14 -51 -16 -57 -4 -15 -50 -18 -58 -4 -12 19 17 113 47 153
31 40 143 112 158 102 5 -3 5 -12 2 -22z m133 13 c7 -2 9 -15 6 -30 -3 -18 -9
-24 -19 -21 -8 3 -26 6 -39 6 -20 0 -24 5 -24 30 0 28 2 29 33 24 17 -3 37 -7
43 -9z m178 -31 c19 -25 44 -69 54 -97 24 -66 37 -131 24 -123 -6 3 -13 24
-17 45 -3 22 -13 47 -21 58 -12 16 -13 11 -8 -39 6 -50 4 -58 -10 -58 -10 0
-16 8 -16 21 0 15 -5 19 -15 15 -13 -5 -15 0 -10 28 4 18 2 51 -4 72 -13 48
-23 124 -17 124 3 0 21 -21 40 -46z m102 25 c19 -11 34 -23 34 -27 0 -8 -52
-62 -61 -62 -4 0 -14 12 -24 26 -14 22 -15 31 -5 55 15 35 14 34 56 8z m-171
-49 c18 -20 17 -20 -10 -20 -20 0 -26 -4 -21 -16 3 -8 2 -12 -4 -9 -11 7 -14
48 -3 58 10 11 19 8 38 -13z m-475 -31 c31 -43 20 -45 -20 -4 -24 25 -29 35
-18 35 9 0 26 -14 38 -31z m230 5 c0 -22 -2 -25 -15 -14 -12 10 -13 16 -4 26
16 20 19 18 19 -12z m489 24 c-2 -2 -17 -14 -34 -28 l-30 -25 24 28 c14 15 29
27 34 27 6 0 8 -1 6 -2z m-369 -18 c0 -20 -24 -60 -36 -60 -13 0 -24 22 -24
51 0 14 7 19 30 19 17 0 30 -4 30 -10z m-348 -108 c-4 -11 -7 -12 -10 -4 -2 7
-11 12 -19 12 -9 0 -14 3 -10 6 6 6 -1 17 -35 54 -9 10 -14 21 -10 24 11 12
91 -76 84 -92z m790 25 c-22 -38 -71 -75 -110 -83 -27 -6 -32 -3 -37 19 -9 36
-7 39 54 90 l55 45 28 -21 c27 -20 27 -21 10 -50z m-572 21 c13 -25 13 -30 -2
-55 -26 -42 -51 -36 -62 14 -15 71 31 99 64 41z m-266 -65 c16 -18 26 -33 22
-33 -19 0 -48 24 -75 64 -33 47 -31 72 2 28 11 -15 34 -42 51 -59z m486 54 c0
-26 -16 -54 -26 -45 -10 10 6 79 17 73 5 -4 9 -16 9 -28z m74 -24 c-8 -56 -7
-55 -26 -48 -13 5 -13 11 1 51 21 58 34 56 25 -3z m131 37 c-3 -5 -11 -10 -16
-10 -6 0 -7 5 -4 10 3 6 11 10 16 10 6 0 7 -4 4 -10z m-525 -85 c0 -14 -4 -25
-10 -25 -11 0 -14 33 -3 43 11 11 13 8 13 -18z m130 -23 c0 -15 -4 -32 -8 -38
-10 -16 -72 -34 -112 -33 -19 1 -39 0 -45 -1 -44 -11 -95 3 -138 36 -64 50
-68 68 -9 41 65 -30 211 -31 260 -2 17 11 32 23 32 28 0 4 5 5 10 2 6 -3 10
-18 10 -33z m179 17 c99 -48 226 -57 294 -22 16 8 31 12 33 10 11 -10 -51 -48
-88 -53 -21 -4 -38 -10 -38 -14 0 -15 -49 -20 -101 -9 -30 6 -62 11 -71 11
-10 -1 -18 3 -18 8 0 5 -9 11 -19 15 -11 3 -31 15 -46 26 -20 17 -23 24 -14
35 15 18 17 18 68 -7z m-139 -50 c0 -6 -4 -7 -10 -4 -5 3 -10 11 -10 16 0 6 5
7 10 4 6 -3 10 -11 10 -16z m80 -28 c0 -12 -85 -64 -129 -79 -19 -7 -50 -12
-70 -13 -30 0 -33 -2 -16 -10 14 -6 -5 -8 -56 -5 -89 4 -99 8 -99 43 0 22 3
24 23 18 74 -24 207 -10 280 30 45 25 67 30 67 16z m403 -13 c-13 -12 -26 -18
-30 -14 -4 4 1 14 11 22 31 22 43 17 19 -8z m-313 -19 c69 -26 183 -37 205
-19 13 10 15 9 15 -8 0 -27 -36 -52 -75 -52 -26 1 -28 2 -14 13 13 10 5 12
-45 13 -34 0 -71 6 -83 13 -15 7 -23 8 -23 1 0 -15 -22 -12 -61 7 -31 16 -32
18 -11 21 12 2 22 10 22 18 0 18 5 18 70 -7z m-310 -8 c0 -9 -97 -7 -107 3 -4
3 19 6 50 6 32 0 57 -4 57 -9z m423 2 c-7 -2 -21 -2 -30 0 -10 3 -4 5 12 5 17
0 24 -2 18 -5z m-227 -54 c3 -6 0 -17 -8 -25 -13 -13 -16 -13 -28 1 -12 14
-11 18 1 26 19 12 26 11 35 -2z m71 -20 c-5 -17 -3 -18 9 -8 25 21 24 4 -2
-34 -28 -41 -32 -43 -59 -23 -17 12 -17 15 11 50 32 40 49 47 41 15z m290 -11
c-3 -8 -6 -5 -6 6 -1 11 2 17 5 13 3 -3 4 -12 1 -19z m-692 -47 c-4 -29 -15
-56 -26 -67 -19 -17 -19 -17 -4 26 8 23 15 52 15 65 0 22 10 39 18 31 2 -3 1
-27 -3 -55z m678 -67 c6 -15 3 -15 -13 5 -15 17 -20 37 -19 75 l1 51 12 -56
c7 -30 16 -64 19 -75z m-620 89 c-4 -11 -3 -14 5 -9 17 10 15 1 -3 -14 -13
-11 -15 -8 -15 14 0 14 4 26 10 26 5 0 6 -7 3 -17z m270 -42 c59 -62 67 -74
42 -65 -8 4 -15 1 -15 -5 0 -19 -35 10 -79 66 -39 48 -42 63 -16 63 7 0 37
-27 68 -59z"/>
<path d="M1517 303 c-3 -5 -8 -23 -12 -41 -6 -31 -5 -33 13 -28 11 4 24 1 31
-8 19 -22 63 26 55 60 -5 20 -12 24 -44 24 -22 0 -41 -3 -43 -7z"/>
</g>
</svg>
